<svg xmlns="http://www.w3.org/2000/svg" viewBox="0 0 512 512" width="512" height="512" shape-rendering="crispEdges">
  <!-- 天空背景 -->
  <rect width="512" height="512" fill="#7EC0EE"/>
  <!-- 雲 -->
  <rect x="50" y="60" width="110" height="16" fill="#FFFFFF" opacity="0.85"/>
  <rect x="36" y="76" width="138" height="16" fill="#FFFFFF" opacity="0.85"/>
  <rect x="320" y="40" width="116" height="16" fill="#FFFFFF" opacity="0.85"/>
  <rect x="334" y="56" width="100" height="16" fill="#FFFFFF" opacity="0.85"/>

  <!-- Grass block -->
  <rect x="64" y="128" width="384" height="16" fill="#A8E060"/>
  <rect x="64" y="144" width="384" height="92" fill="#5D8A3A"/>
  <rect x="96" y="144" width="16" height="16" fill="#7FB040"/>
  <rect x="160" y="144" width="16" height="16" fill="#7FB040"/>
  <rect x="256" y="144" width="16" height="16" fill="#7FB040"/>
  <rect x="352" y="144" width="16" height="16" fill="#7FB040"/>
  <rect x="416" y="144" width="16" height="16" fill="#7FB040"/>
  <rect x="64" y="236" width="384" height="148" fill="#8B5A2B"/>
  <rect x="96" y="268" width="36" height="20" fill="#5A3A1A"/>
  <rect x="216" y="300" width="52" height="16" fill="#A67B4A"/>
  <rect x="320" y="256" width="32" height="28" fill="#5A3A1A"/>
  <rect x="128" y="332" width="44" height="16" fill="#A67B4A"/>
  <rect x="350" y="344" width="36" height="16" fill="#5A3A1A"/>
  <rect x="64" y="128" width="384" height="10" fill="#A8E060"/>
  <rect x="64" y="128" width="10" height="256" fill="#A8E060" opacity="0.5"/>
  <rect x="438" y="128" width="10" height="256" fill="#3D5E23"/>
  <rect x="64" y="374" width="384" height="10" fill="#5A3A1A"/>

  <!-- 鑽石劍 -->
  <g transform="translate(256 264) rotate(-32)">
    <rect x="-10" y="60" width="20" height="60" fill="#8B5A2B"/>
    <rect x="-10" y="60" width="6" height="60" fill="#A67B4A"/>
    <rect x="4" y="60" width="6" height="60" fill="#5A3A1A"/>
    <rect x="-32" y="40" width="64" height="20" fill="#FFC830"/>
    <rect x="-32" y="40" width="64" height="6" fill="#FFE066"/>
    <rect x="-32" y="54" width="64" height="6" fill="#B8860B"/>
    <rect x="-10" y="-130" width="20" height="170" fill="#A8E5FF"/>
    <rect x="-10" y="-130" width="6" height="170" fill="#FFFFFF"/>
    <rect x="4" y="-130" width="6" height="170" fill="#5DA8DD"/>
    <polygon points="-10,-130 0,-152 10,-130" fill="#A8E5FF"/>
    <polygon points="-10,-130 0,-152 0,-130" fill="#FFFFFF"/>
  </g>

  <!-- ABC 文字 -->
  <g font-family="'Press Start 2P', monospace" font-weight="bold" font-size="60" text-anchor="middle">
    <text x="262" y="476" fill="#000000">ABC</text>
    <text x="256" y="470" fill="#FFD700">ABC</text>
  </g>
</svg>
